<svg xmlns="http://www.w3.org/2000/svg" viewBox="0 0 458.83 242.63"><defs><style>.cls-1{fill:#f7dce6;}</style></defs><g id="Layer_2" data-name="Layer 2"><g id="Layer_3" data-name="Layer 3"><path class="cls-1" d="M71.05,139.42a171.45,171.45,0,0,1,6.71-19l-1.21,2.87a176.16,176.16,0,0,1,22.58-38.7L97.26,87a174.58,174.58,0,0,1,30.85-31l-2.43,1.88a169.49,169.49,0,0,1,37.65-21.95l-2.87,1.21A177.56,177.56,0,0,1,205.25,25l-3.19.43a174.33,174.33,0,0,1,45.81,0L244.68,25a181.57,181.57,0,0,1,45.54,12.67l-2.87-1.21a231.16,231.16,0,0,1,50.66,30l-2.43-1.88c17.2,13.3,33.53,28.63,46.89,45.83L380.59,108a123.26,123.26,0,0,1,12.3,19.52c3.48,6.88,6.66,13.93,11,20.36L411,130.2a524.66,524.66,0,0,1-66.79,16q-9.63,1.67-19.32,3l3.19-.43A531.51,531.51,0,0,1,218.48,152q-15.47-1.16-30.84-3.21l3.19.43c-34.59-4.68-68.75-12.49-102.93-19.43l-29.54-6A12.76,12.76,0,0,0,49.12,125a12.21,12.21,0,0,0-5.52,7.17c-1.36,6,1.81,13.42,8.38,14.76L125,161.76c24.41,4.94,48.87,9.59,73.64,12.38a525.88,525.88,0,0,0,70,3.19,554.6,554.6,0,0,0,72-6.35A526.19,526.19,0,0,0,409,155.88c2.8-.82,5.59-1.67,8.38-2.53,7-2.17,11.64-11,7.17-17.63-4.66-7-8-14.66-11.84-22.08a136.49,136.49,0,0,0-15.28-22.75,264.79,264.79,0,0,0-32.62-33.25C340.73,36.72,313.38,19.56,283,9.39a185.79,185.79,0,0,0-96.37-5.48,182.8,182.8,0,0,0-85,43,186.49,186.49,0,0,0-50.49,76q-1.78,5-3.25,10.15c-1.74,6,2.11,13.34,8.38,14.76a12.23,12.23,0,0,0,14.76-8.38Z"/><path class="cls-1" d="M0,172.83l.1,1.85a12.06,12.06,0,0,0,20.48,8.49c3.16-2.88,6.48-5.58,9.86-8.19L28,176.85C39.48,168,52,160,61.52,148.94a80.43,80.43,0,0,0,8.39-11.38,12,12,0,0,0-4.3-16.42,12.23,12.23,0,0,0-16.42,4.31,64.32,64.32,0,0,1-4.1,6L47,129c-5.44,7-12.2,12.75-19.17,18.15l2.43-1.88C21.31,152.19,12,158.6,3.62,166.2l20.49,8.48-.1-1.85a12.62,12.62,0,0,0-3.51-8.49A12.18,12.18,0,0,0,12,160.83a12,12,0,0,0-12,12Z"/><path class="cls-1" d="M99.9,208.38q16.25-22.23,31-45.53a12,12,0,0,0-20.73-12.12q-14.7,23.29-31,45.54c-1.73,2.36-2,6.54-1.21,9.25a12,12,0,0,0,14.76,8.38l2.86-1.21a12,12,0,0,0,4.31-4.31Z"/><path class="cls-1" d="M181.93,223.84a264.43,264.43,0,0,1,15-58.69c1-2.74.22-6.81-1.21-9.25a12,12,0,0,0-16.42-4.3l-2.43,1.88a11.91,11.91,0,0,0-3.08,5.29,265,265,0,0,0-15,58.69,9.08,9.08,0,0,0-.21,4.79,9,9,0,0,0,1.42,4.46A12,12,0,0,0,176.41,231c2.42-1.57,5.1-4.17,5.52-7.18Z"/><path class="cls-1" d="M269.69,230.62c-.14-15.23-3.33-30.23-5.37-45.27l.42,3.19a144.06,144.06,0,0,1-1.52-22.73l-18.05,10.36,2,1.14a12.54,12.54,0,0,0,9.25,1.21,12.25,12.25,0,0,0,7.17-5.52,12.12,12.12,0,0,0,1.21-9.25,12.37,12.37,0,0,0-5.51-7.17l-2-1.13a12,12,0,0,0-18.06,10.36c-.41,16.5,3.2,32.77,5.39,49l-.43-3.19a154.29,154.29,0,0,1,1.51,19,12.39,12.39,0,0,0,3.51,8.49,12.22,12.22,0,0,0,8.49,3.51c6.45-.29,12.06-5.27,12-12Z"/><path class="cls-1" d="M365.6,218a140.81,140.81,0,0,1-7.18-14.52l1.21,2.86a139.48,139.48,0,0,1-7.93-25.08c-.88-4.1-1.43-8.24-2.19-12.35a39,39,0,0,0-1.47-5.74,31.75,31.75,0,0,0-3.77-7.88,12.87,12.87,0,0,0-7.17-5.52,12.3,12.3,0,0,0-9.25,1.21,12.12,12.12,0,0,0-5.51,7.17c-.68,3-.63,6.64,1.21,9.25a20.88,20.88,0,0,1,2,3.51l-1.21-2.86a46.49,46.49,0,0,1,2.7,11.11c.63,4,1.39,8,2.35,12a156,156,0,0,0,9.14,26.3,140.27,140.27,0,0,0,6.38,12.67,12,12,0,0,0,16.42,4.3A12.23,12.23,0,0,0,365.6,218Z"/><path class="cls-1" d="M397.77,142.15Q413,163.6,429.39,184.23q4.42,5.58,8.94,11.11c1.83,2.25,5.72,3.52,8.49,3.52a12.21,12.21,0,0,0,8.48-3.52,12.06,12.06,0,0,0,3.52-8.48l-.43-3.19a12,12,0,0,0-3.09-5.3q-8.1-9.93-15.94-20.07l1.88,2.43Q429.57,145.61,418.49,130c-1.85-2.61-4-4.64-7.17-5.52a12.26,12.26,0,0,0-9.24,1.21,12.09,12.09,0,0,0-5.52,7.17c-.68,3-.64,6.65,1.21,9.25Z"/></g></g></svg>