<svg xmlns="http://www.w3.org/2000/svg" viewBox="0 0 493 293"><defs><style>.ieksa,.cls-3{fill:#f7dce6;}.ieksa{stroke:#f7dce6;stroke-miterlimit:10;stroke-width:35px;}.zilite{fill:#03140d;}.cls-2{fill:#03140d;}</style></defs><g id="Layer_2" data-name="Layer 2"><g id="Layer_3" data-name="Layer 3"><ellipse id="ieksa" class="ieksa" cx="229.5" cy="106.74" rx="39" ry="41.24"/><g id="zilite"><circle class="zilite" cx="229.5" cy="107.5" r="22.5"/></g><g id="cover"><path class="cls-2" d="M0,0V293H493V0ZM66,153.91l3.92.88c10.19-39.23,33.56-74.23,64.71-96.55,33-23.66,74.37-32.84,113.16-25.12,43.29,8.61,81.61,37.15,111.77,72.27,7.49,8.72,14.6,17.94,20,28.34,4.55,8.74,7.87,18.25,13,26.6A439.53,439.53,0,0,1,181.6,178.58c-17.76-2.83-35.37-6.76-53-10.68Z"/></g><g id="apkart"><path class="cls-3" d="M81.45,158a183.7,183.7,0,0,1,8.41-24.8l-1.21,2.87a179.53,179.53,0,0,1,22.81-39.18l-1.87,2.43A163.6,163.6,0,0,1,138.67,70l-2.42,1.87a151.53,151.53,0,0,1,33.18-19.41l-2.87,1.21a149.8,149.8,0,0,1,37.62-10.33l-3.19.43a143.85,143.85,0,0,1,38.22-.07L236,43.27a151.18,151.18,0,0,1,38,10.54l-2.87-1.21a196.3,196.3,0,0,1,43.16,25.61l-2.43-1.88a264.81,264.81,0,0,1,46.58,46.61l-1.88-2.43a128.53,128.53,0,0,1,14.05,22.18c3.84,7.91,7,16.17,11.54,23.7l7.17-17.63a443,443,0,0,1-65,16.8q-9.3,1.66-18.65,2.92l3.19-.42a441.16,441.16,0,0,1-91.31,2.73q-12.9-1-25.72-2.7l3.19.43c-16.38-2.22-32.59-5.47-48.74-9-16.44-3.59-32.86-7.31-49.28-11l-27.86-6.22a12.66,12.66,0,0,0-9.24,1.21,12.24,12.24,0,0,0-5.52,7.17C53,156.8,56.22,164,62.77,165.48q33.07,7.38,66.14,14.76c22.45,5,44.92,9.65,67.76,12.48a436.19,436.19,0,0,0,63.71,3.16,464.32,464.32,0,0,0,65.83-6.39,442.71,442.71,0,0,0,62-15.08q3.79-1.22,7.56-2.51a12.11,12.11,0,0,0,7.78-7,11.69,11.69,0,0,0-.6-10.68c-4.18-6.84-7.14-14.3-10.53-21.55a123.61,123.61,0,0,0-12.23-20.56,271,271,0,0,0-31-35.28c-21.65-20.81-46.7-38.14-74.94-48.69a156.16,156.16,0,0,0-89.68-5.55,162.63,162.63,0,0,0-78.18,44,189.17,189.17,0,0,0-45.06,74.85q-1.62,5-2.94,10.09c-1.59,6.06,2,13.3,8.38,14.76s13.06-1.89,14.76-8.38Z"/></g><g id="skropsta"><path class="cls-3" d="M14.7,191.38l.09,1.85a12.07,12.07,0,0,0,20.49,8.49c11.33-11.34,25.2-20,35.62-32.27a80,80,0,0,0,9.41-13.33,12.64,12.64,0,0,0,1.21-9.25A12.25,12.25,0,0,0,76,139.7,12,12,0,0,0,59.58,144,63,63,0,0,1,54,152.51l1.88-2.43c-8.2,10.5-19.08,18.33-29.12,26.91-2.91,2.49-5.75,5-8.45,7.76l20.48,8.48-.09-1.85a12.61,12.61,0,0,0-3.51-8.48,12,12,0,0,0-17,0,12,12,0,0,0-3.52,8.48Z"/></g><g id="skropsta-2" data-name="skropsta"><path class="cls-3" d="M107.58,226.94q14.82-22.31,28.17-45.54a12.48,12.48,0,0,0,1.21-9.25,12.27,12.27,0,0,0-5.51-7.17,12.13,12.13,0,0,0-9.25-1.21,12.43,12.43,0,0,0-7.17,5.52q-13.35,23.22-28.17,45.53a12,12,0,0,0,13.55,17.63,13.2,13.2,0,0,0,7.17-5.51Z"/></g><g id="skropsta-3" data-name="skropsta"><path class="cls-3" d="M182.73,239.21c.12-1,.24-1.9.37-2.84l-.43,3.19A285.91,285.91,0,0,1,196,183.7c1-2.82.26-6.73-1.21-9.24a12,12,0,0,0-16.42-4.31,13.3,13.3,0,0,0-5.52,7.17,301.08,301.08,0,0,0-14.1,61.89c-.35,2.83,1.6,6.56,3.52,8.48a12,12,0,0,0,17,0l1.87-2.42a12,12,0,0,0,1.64-6.06Z"/></g><g id="skropsta-4" data-name="skropsta"><path class="cls-3" d="M262.17,249.17c-.12-13.71-2.52-27.27-4.35-40.82l.43,3.19a174.11,174.11,0,0,1-2-27.17l-18.06,10.36,1.83,1.13a12,12,0,1,0,12.11-20.72L250.35,174a12,12,0,0,0-12.12,0,12.18,12.18,0,0,0-5.94,10.36c-.34,14.82,2.33,29.51,4.31,44.14l-.43-3.19a192.43,192.43,0,0,1,2,23.85,12.4,12.4,0,0,0,3.51,8.49,12.18,12.18,0,0,0,8.49,3.51c6.45-.29,12.05-5.27,12-12Z"/></g><g id="skropsta-5" data-name="skropsta"><path class="cls-3" d="M349.26,236.58q-2.58-5-4.78-10.19l1.21,2.87a150.06,150.06,0,0,1-8.48-27.06c-1-4.51-1.58-9-2.3-13.6a38,38,0,0,0-5.05-14.74,12.59,12.59,0,0,0-7.17-5.51A12,12,0,0,0,309.14,186a21.73,21.73,0,0,1,1.52,2.86L309.45,186a44.53,44.53,0,0,1,2.63,11.11c.6,4.16,1.28,8.29,2.18,12.4a147.61,147.61,0,0,0,7.34,23.87c2.1,5.21,4.36,10.36,6.94,15.35a12,12,0,0,0,20.72-12.11Z"/></g><g id="skropsta-6" data-name="skropsta"><path class="cls-3" d="M376.65,160.7q16.77,26,35.19,50.77A13.34,13.34,0,0,0,419,217a12,12,0,0,0,14.76-8.38c.67-2.95.68-6.7-1.21-9.24q-18.4-24.81-35.19-50.77a12.56,12.56,0,0,0-7.17-5.51,12,12,0,0,0-13.55,17.62Z"/></g></g></g></svg>