<svg xmlns="http://www.w3.org/2000/svg" viewBox="0 0 493 293"><defs><style>.ieksa,.cls-3{fill:#f7dce6;}.ieksa{stroke:#f7dce6;stroke-miterlimit:10;stroke-width:35px;}.zilite{fill:#03140d;}.cls-2{fill:#03140d;}</style></defs><g id="Layer_2" data-name="Layer 2"><g id="Layer_3" data-name="Layer 3"><ellipse id="ieksa" class="ieksa" cx="263.5" cy="106.74" rx="39" ry="41.24"/><g id="zilite"><circle class="zilite" cx="263.5" cy="107.5" r="22.5"/></g><g id="cover"><path class="cls-2" d="M0,0V293H493V0ZM364.36,167.9c-17.59,3.92-35.2,7.85-53,10.68a439.53,439.53,0,0,1-210.94-18.25c5.13-8.35,8.45-17.86,13-26.6,5.42-10.4,12.53-19.62,20-28.34C163.64,70.27,202,41.73,245.25,33.12,284,25.4,325.41,34.58,358.41,58.24c31.15,22.32,54.52,57.32,64.71,96.55l3.92-.88Z"/></g><g id="apkart"><path class="cls-3" d="M434.69,151.6a191.17,191.17,0,0,0-41.1-77.53A164.49,164.49,0,0,0,319,25.48a155.94,155.94,0,0,0-90.42-.57c-28.72,8.61-54.46,24.92-76.79,44.68a279.94,279.94,0,0,0-30.57,31.79A172.16,172.16,0,0,0,106,122.48c-4.06,6.83-7.08,14.15-10.42,21.34a105,105,0,0,1-5.49,10.45,11.69,11.69,0,0,0-.6,10.68,12.11,12.11,0,0,0,7.78,7A442.58,442.58,0,0,0,159,188.1a462.38,462.38,0,0,0,65.73,7.52,435,435,0,0,0,63.75-2c22.74-2.38,45.14-6.65,67.45-11.56,22-4.85,44.05-9.82,66.08-14.73l8.23-1.84c6.13-1.36,10.3-8.8,8.38-14.76a12.28,12.28,0,0,0-14.76-8.38l-49.39,11c-16.36,3.65-32.7,7.43-49.17,10.62-9.06,1.75-18.17,3.3-27.32,4.54l3.19-.43a439.05,439.05,0,0,1-91.31,2.67q-12.9-1-25.72-2.7l3.19.42a443.6,443.6,0,0,1-65.58-14q-9.1-2.69-18.09-5.75l7.17,17.63c4.58-7.53,7.7-15.79,11.54-23.7a128.53,128.53,0,0,1,14-22.18l-1.88,2.43a264.81,264.81,0,0,1,46.58-46.61l-2.43,1.88A196.3,196.3,0,0,1,221.84,52.6L219,53.81a151.18,151.18,0,0,1,38-10.54l-3.19.43a143.85,143.85,0,0,1,38.22.07l-3.19-.43a149.8,149.8,0,0,1,37.62,10.33l-2.87-1.21a151.53,151.53,0,0,1,33.18,19.41L354.33,70a163.6,163.6,0,0,1,29.08,29.3l-1.87-2.43a179.53,179.53,0,0,1,22.81,39.18l-1.21-2.87a183.7,183.7,0,0,1,8.41,24.8c1.59,6.07,8.65,10.35,14.76,8.38a12.23,12.23,0,0,0,8.38-14.76Z"/></g><g id="skropsta"><path class="cls-3" d="M454.3,191.38l-.09,1.85,20.48-8.48c-9.4-9.4-20.46-16.92-30-26.22a84.75,84.75,0,0,1-7.61-8.45l1.88,2.43a63,63,0,0,1-5.58-8.51,12,12,0,0,0-20.73,12.12A85.78,85.78,0,0,0,429.29,177c5.85,5.52,12.2,10.44,18.35,15.61,3.47,2.92,6.87,5.93,10.08,9.14a12.07,12.07,0,0,0,20.49-8.49l.09-1.85a12,12,0,0,0-24,0Z"/></g><g id="skropsta-2" data-name="skropsta"><path class="cls-3" d="M406.14,214.82Q391.32,192.52,378,169.29A12,12,0,0,0,361.55,165a12.12,12.12,0,0,0-5.51,7.17,12.58,12.58,0,0,0,1.21,9.25q13.33,23.22,28.17,45.54a12.75,12.75,0,0,0,7.17,5.51,12.3,12.3,0,0,0,9.25-1.21,12.12,12.12,0,0,0,5.51-7.17c.69-3,.58-6.56-1.21-9.25Z"/></g><g id="skropsta-3" data-name="skropsta"><path class="cls-3" d="M334.27,239.21a301.08,301.08,0,0,0-14.1-61.89,12.84,12.84,0,0,0-5.52-7.17,12.28,12.28,0,0,0-9.24-1.21,12.14,12.14,0,0,0-7.18,5.52c-1.45,2.75-2.26,6.2-1.21,9.24a285.91,285.91,0,0,1,13.31,55.86l-.43-3.19c.13.94.25,1.89.37,2.84a13.32,13.32,0,0,0,3.51,8.48,12,12,0,0,0,17,0c2-2.17,3.9-5.4,3.52-8.48Z"/></g><g id="skropsta-4" data-name="skropsta"><path class="cls-3" d="M254.83,249.17a192.43,192.43,0,0,1,2-23.85l-.43,3.19c2-14.63,4.65-29.32,4.31-44.14A12.18,12.18,0,0,0,254.77,174a12,12,0,0,0-12.12,0l-1.82,1.13a12.54,12.54,0,0,0-5.52,7.17,12.3,12.3,0,0,0,1.21,9.25,12.12,12.12,0,0,0,7.17,5.51,12.28,12.28,0,0,0,9.25-1.21l1.83-1.13-18.06-10.36a174.11,174.11,0,0,1-2,27.17l.43-3.19c-1.83,13.55-4.23,27.11-4.35,40.82a12.38,12.38,0,0,0,3.52,8.49,12.15,12.15,0,0,0,8.48,3.51c6.55-.29,11.95-5.27,12-12Z"/></g><g id="skropsta-5" data-name="skropsta"><path class="cls-3" d="M164.46,248.69a158.55,158.55,0,0,0,16.22-50c.62-4.32,1.16-8.71,2.87-12.77l-1.21,2.87a21.73,21.73,0,0,1,1.52-2.86,12,12,0,1,0-20.72-12.11,37.68,37.68,0,0,0-5,14.53c-.73,4.62-1.36,9.23-2.33,13.81a150.06,150.06,0,0,1-8.48,27.06l1.21-2.87q-2.21,5.18-4.78,10.19a12.61,12.61,0,0,0-1.21,9.24,12,12,0,0,0,21.93,2.87Z"/></g><g id="skropsta-6" data-name="skropsta"><path class="cls-3" d="M95.63,148.59q-16.78,25.93-35.19,50.77c-1.74,2.34-1.95,6.56-1.21,9.24a12.29,12.29,0,0,0,5.51,7.18A12.12,12.12,0,0,0,74,217l2.87-1.2a12.08,12.08,0,0,0,4.3-4.31q18.41-24.81,35.19-50.77a12,12,0,0,0-20.72-12.11Z"/></g></g></g></svg>