<svg xmlns="http://www.w3.org/2000/svg" viewBox="0 0 458.81 242.68"><defs><style>.cls-1{fill:#f7dce6;}</style></defs><g id="Layer_2" data-name="Layer 2"><g id="Layer_3" data-name="Layer 3"><path class="cls-1" d="M410.91,133.09a186.33,186.33,0,0,0-46-78.71A182.34,182.34,0,0,0,283,6.56a185.7,185.7,0,0,0-97-.24c-30.8,8.34-58.74,24.4-83.52,44.22a292.81,292.81,0,0,0-33.43,31.4,178.76,178.76,0,0,0-16.89,21.23c-4.65,7-8.11,14.58-11.92,22a102.49,102.49,0,0,1-6.09,10.56c-4.47,6.68.18,15.46,7.17,17.63a527.29,527.29,0,0,0,68.13,16.25,557.11,557.11,0,0,0,71.86,7.48,528,528,0,0,0,70-2c24.68-2.36,49.08-6.62,73.38-11.48s48.59-9.85,72.89-14.78l9.14-1.86c6.16-1.25,10.28-8.89,8.38-14.76-2.11-6.53-8.16-9.72-14.76-8.38-34.47,7-68.88,14.46-103.49,20.77-9.63,1.75-19.28,3.34-29,4.65l3.19-.43A529.36,529.36,0,0,1,161.55,152q-15.45-1.17-30.83-3.22l3.19.43A530.69,530.69,0,0,1,66.56,135.7q-9.44-2.53-18.77-5.44L55,147.89c4.31-6.43,7.49-13.48,11-20.37A123.93,123.93,0,0,1,78.22,108l-1.87,2.43C89.7,93.23,106,77.9,123.23,64.61l-2.43,1.87a231.39,231.39,0,0,1,50.66-30l-2.86,1.21a182.42,182.42,0,0,1,45.54-12.67l-3.19.43a173.83,173.83,0,0,1,45.8,0L253.56,25a177.08,177.08,0,0,1,44.8,12.14L295.49,36a169.42,169.42,0,0,1,37.64,22L330.71,56a174.31,174.31,0,0,1,30.85,31l-1.88-2.43a176,176,0,0,1,22.59,38.7l-1.21-2.86a173.35,173.35,0,0,1,6.71,19c1.73,6,8.54,10.4,14.76,8.39s10.24-8.3,8.38-14.77Z"/><path class="cls-1" d="M434.8,172.88l-.09,1.85,20.48-8.48c-8.35-7.6-17.68-14-26.6-20.9l2.42,1.88c-7-5.4-13.72-11.17-19.16-18.15l1.88,2.43a61.22,61.22,0,0,1-4.1-6,12.48,12.48,0,0,0-7.17-5.51,12,12,0,0,0-14.77,8.38,12.46,12.46,0,0,0,1.21,9.24c8,13.43,20.21,23,32.54,32.24,3.12,2.34,6.26,4.67,9.36,7.06L428.37,175c3.38,2.62,6.69,5.31,9.85,8.19a12.07,12.07,0,0,0,20.49-8.49l.09-1.85a12,12,0,0,0-20.48-8.48,13,13,0,0,0-3.52,8.48Z"/><path class="cls-1" d="M379.64,196.32q-16.25-22.23-31-45.53a12.57,12.57,0,0,0-7.17-5.52,12.3,12.3,0,0,0-9.25,1.21A12,12,0,0,0,328,162.9q14.71,23.28,31,45.53c1.9,2.61,3.95,4.63,7.17,5.52a12.26,12.26,0,0,0,9.24-1.21,12.09,12.09,0,0,0,5.52-7.17c.67-3,.66-6.69-1.21-9.25Z"/><path class="cls-1" d="M300,217.52a264.37,264.37,0,0,0-15-58.7c-1.15-3-2.65-5.49-5.51-7.17a12.31,12.31,0,0,0-9.25-1.21,12.12,12.12,0,0,0-7.17,5.52c-1.43,2.69-2.35,6.27-1.21,9.24a265.47,265.47,0,0,1,15,58.7c.38,2.75,3.24,5.84,5.52,7.17a12.28,12.28,0,0,0,9.24,1.21,12.09,12.09,0,0,0,7.17-5.52L300,223.9a12.12,12.12,0,0,0,0-6.38Z"/><path class="cls-1" d="M213.13,230.67a154.13,154.13,0,0,1,1.51-18.95l-.43,3.19c2.19-16.28,5.8-32.54,5.38-49a12,12,0,0,0-18.06-10.37l-2,1.14a12,12,0,1,0,12.11,20.72l2-1.13-18.06-10.36a144.14,144.14,0,0,1-1.52,22.73l.43-3.19c-2,15-5.23,30-5.37,45.26a12.34,12.34,0,0,0,3.52,8.49,12,12,0,0,0,20.48-8.49Z"/><path class="cls-1" d="M113.94,230.19a148.74,148.74,0,0,0,17.64-49.54c.69-4.24,1.24-8.54,2.92-12.53L133.29,171a20.63,20.63,0,0,1,2-3.52c1.7-2.42,2-6.49,1.21-9.24a12.27,12.27,0,0,0-5.52-7.18,12.1,12.1,0,0,0-9.24-1.21,13.57,13.57,0,0,0-7.18,5.52c-5.34,7.58-5.55,17.22-7.42,26a139.83,139.83,0,0,1-7.93,25.09l1.21-2.87a143.1,143.1,0,0,1-7.19,14.53A12.5,12.5,0,0,0,92,227.32a12,12,0,0,0,14.77,8.38,12.4,12.4,0,0,0,7.17-5.51Z"/><path class="cls-1" d="M40.32,130.09q-11.07,15.57-22.74,30.69l1.87-2.42Q11.62,168.5,3.51,178.43C1.44,181,0,183.51,0,186.91a12.25,12.25,0,0,0,3.51,8.49A12,12,0,0,0,12,198.91c3-.13,6.51-1.09,8.49-3.51Q37.13,175,52.7,153.77q4.21-5.75,8.35-11.57c1.71-2.4,2-6.5,1.21-9.24a12,12,0,0,0-14.77-8.39l-2.86,1.21a12.11,12.11,0,0,0-4.31,4.31Z"/></g></g></svg>