<svg xmlns="http://www.w3.org/2000/svg" viewBox="0 0 328.5 550.5"><defs><style>.cls-1{fill:#f7dce6;}</style></defs><g id="Layer_2" data-name="Layer 2"><g id="Layer_2-2" data-name="Layer 2"><path class="cls-1" d="M167.18,0A251.86,251.86,0,0,1,104,169.52c-36.15,41-78.26,63.15-104,74.27,40.12,17,65.31,37.39,80.38,52,0,0,74.76,72.38,89.16,249.27,0,.24.44,5.45.47,5.45s-.45-6.84-.47-7.12c-11.1-157.53,57.07-232.52,57.07-232.52,15.78-17.35,46.3-44.6,101.89-63.68-24.75-10.06-58.77-27.6-89.62-57.93C163.84,115.5,165.87,23.5,167.18,0Z"/></g></g></svg>