<svg xmlns="http://www.w3.org/2000/svg" viewBox="0 0 1870.64 1407.72"><defs><style>.tiikls{fill:#faccfc;}</style></defs><g id="Layer_2" data-name="Layer 2"><g id="Layer_1-2" data-name="Layer 1"><path class="tiikls" d="M157.73,169.66c90.17,66,186.69,122.84,286.34,173.27,99.06,50.14,201.11,94.11,304,135.79,104.13,42.2,209.19,82.07,313.56,123.68,53,21.12,105.75,42.68,158.12,65.22,51.36,22.11,104.36,43.39,152.47,72.09,24.08,14.36,46.26,31.4,65.37,52,17.52,18.86,32.51,39.87,46.5,61.43,27,41.56,50.39,85.67,82.1,124a313.57,313.57,0,0,0,25.66,27.53c1.4,1.33,3.52-.79,2.12-2.12-73.89-70.21-103.07-176.1-183.69-240.3-43.91-35-97.18-56.74-148.11-79.29s-102.09-44-153.59-64.84c-104.53-42.37-210-82.39-314.76-124.16S584.63,408.47,483.1,359c-100.32-48.9-198-103.66-289.64-167.46q-17.25-12-34.21-24.44c-1.56-1.14-3.06,1.46-1.52,2.59Z"/><path class="tiikls" d="M907.11,540.24c28.3-.94,55.85-8.09,82.41-17.52,26-9.23,51.37-20.17,76.69-31,49.7-21.29,98.75-44.27,145.78-71,46.35-26.36,90.73-56.45,130.85-91.66,37.12-32.56,70.32-69.2,105.34-103.93,34.74-34.46,71.73-67.51,115-91q8-4.34,16.25-8.2c1.75-.82.23-3.41-1.51-2.59-43.79,20.59-81.59,51.34-116.4,84.56C1426,241.84,1393.13,278.46,1357.21,312c-38.84,36.24-81.84,67.53-127.37,94.82-46,27.58-94.34,51.2-143.4,72.85-25.13,11.09-50.43,21.85-76,32-26.3,10.4-53.33,19.75-81.44,23.73a206.41,206.41,0,0,1-21.92,1.89c-1.93.06-1.93,3.06,0,3Z"/><path class="tiikls" d="M906.73,540.45c-37.16,41.93-88.5,66.89-139,89-56.47,24.74-113.59,48-170.51,71.67-56.75,23.6-113.37,47.56-169.06,73.57s-110.45,54-163.16,85.63c-24,14.4-48.23,29.92-66,52-17.44,21.68-27.73,47.92-36.21,74.15-2.17,6.7-4.24,13.44-6.29,20.19-.56,1.85,2.33,2.64,2.89.8,8.25-27.08,16.67-54.63,31.73-78.83,15.59-25,38.55-42.87,63.25-58.31,51.57-32.23,106-60.17,160.86-86.24,55.48-26.35,112-50.52,168.65-74.18,56.34-23.51,112.88-46.54,168.94-70.72,50-21.59,101.62-44,141.78-81.92q7.44-7,14.21-14.68c1.28-1.44-.83-3.57-2.12-2.12Z"/><path class="tiikls" d="M141.66,653.1c49-5.35,97.48-14.5,145.63-25,48.81-10.61,97.32-22.53,146.14-33.1s98.17-19.83,148-24.94c51.28-5.26,102.85-6.47,154.29-9.42,50.92-2.91,101.54-8.33,151.62-18.12,6.37-1.24,12.73-2.56,19.08-3.92,1.88-.4,1.08-3.3-.8-2.89A1059.83,1059.83,0,0,1,753,556.61C701.59,560,650,561,598.67,565.47c-49.17,4.24-97.83,12.42-146.13,22.44-48.67,10.11-97,21.91-145.46,32.78s-97.32,20.86-146.67,27.19q-9.36,1.2-18.75,2.22c-1.9.21-1.92,3.21,0,3Z"/><path class="tiikls" d="M908.12,541.58c-7.55-31.14-9.47-63.2-10.85-95.1-1.43-32.75-2.79-65.5-3.8-98.26-1-32.52-1.61-65.06-1.39-97.59.22-32.85,1.7-65.63,3.23-98.44,1.72-36.67,3-73.46-.21-110.09-.16-1.91-3.16-1.93-3,0,2.86,33,2.14,66.13.71,99.17-1.43,32.8-3.21,65.57-3.63,98.4-.83,65.75,1.91,131.47,4.68,197.15,1.48,35.37,3,71,11.36,105.55.46,1.88,3.35,1.09,2.9-.79Z"/><path class="tiikls" d="M902.64,539.06a1.5,1.5,0,0,0,0-3,1.5,1.5,0,0,0,0,3Z"/><path class="tiikls" d="M902.64,539.06a1.5,1.5,0,0,0,0-3,1.5,1.5,0,0,0,0,3Z"/><path class="tiikls" d="M901.65,539.51c15,20.33,36.29,34.36,58.16,46.36,23.83,13.07,48.44,24.73,73.26,35.8,50,22.31,101.16,42,151,64.6,50.38,22.82,98.89,49.05,143.34,82.11,46.25,34.4,88.52,73.85,131,112.73,42.16,38.6,84,77.88,120.91,121.59q6.81,8.07,13.4,16.32c1.2,1.51,3.31-.62,2.12-2.12-35.69-44.76-76.77-84.8-118.74-123.6-41.75-38.6-83.46-77.65-128.12-112.91a685.44,685.44,0,0,0-68.14-47.83A798.23,798.23,0,0,0,1207.81,694c-49.42-23.57-100.49-43.43-150.76-65.07-24.94-10.73-49.71-21.91-73.93-34.19-23.18-11.74-47.1-24-66-42.13A113.76,113.76,0,0,1,904.24,538c-1.14-1.54-3.74,0-2.59,1.52Z"/><path class="tiikls" d="M904.23,547.12c0,55.64,5.84,111,12.79,166.15s15,110.37,19.13,165.9c4.26,56.94,3.09,114,1.62,171-1.47,56.8-2.4,113.53,1.14,170.27q2.63,42.22,7.92,84.24c1.69,13.41,3.65,26.78,5.64,40.15s3.8,27.06,3,40.68a87,87,0,0,1-3.65,20.36c-.57,1.85,2.33,2.64,2.89.8,7.68-25,2.28-51.19-1.4-76.4q-6.25-42.93-9.71-86.2c-4.55-56.88-4.77-113.8-3.4-170.81,1.37-57.19,3.52-114.44.41-171.61-3-55.89-10.64-111.37-17.82-166.84S908.83,623.86,907.47,568q-.26-10.43-.24-20.85a1.5,1.5,0,0,0-3,0Z"/><path class="tiikls" d="M902.55,552c-10.47,28.15-17.2,57.53-27.6,85.7s-25.84,53.57-43.86,77.51c-36.48,48.46-78.89,92.33-122.82,134-21.5,20.41-43.1,41.28-67.68,58-24.81,16.88-52.69,28.07-80.91,37.82-29.82,10.31-59.85,20-89.79,30-28.73,9.58-58.78,17.69-85.68,31.88-13.34,7-26,15.43-40.25,20.5s-29.42,7.5-44.49,9.09c-31.47,3.3-63.21,4.85-94.84,5.63q-12.19.28-24.41.38a1.5,1.5,0,0,0,0,3q49.18-.36,98.27-4.17c15-1.16,30-2.38,44.81-5.28a143.93,143.93,0,0,0,41-14.62c13.6-7.33,26.68-15.19,41.06-21s29.46-10.57,44.29-15.52L542.39,954c27.93-9.32,56.05-18.86,81.87-33.23,26-14.45,48.31-34.17,70-54.31,44.77-41.6,88-85.08,126.26-132.85,18.56-23.2,36.31-47.43,48.83-74.51s19.74-56.43,28.77-84.91c2.29-7.2,4.71-14.37,7.35-21.45.67-1.82-2.23-2.6-2.9-.8Z"/><path class="tiikls" d="M905.87,543.23c18.1,50.4,50.06,94.37,87.79,131.93,40.95,40.78,88.55,73.9,136.85,105.31,26.09,17,52.46,33.53,78.38,50.77q39.46,26.25,76.75,55.44c47.83,37.5,94.62,76.24,148.54,104.88,49.66,26.39,104.64,45,161.33,45.48,7.09.07,14.18-.17,21.25-.66,1.92-.13,1.93-3.13,0-3-57.13,4-113.46-11.33-164.59-36-54.19-26.2-101.44-62.88-148.36-100.11-24.06-19.09-48.36-37.81-73.66-55.23s-51.17-33.88-77-50.46C1104,760,1054.85,727.78,1011.66,688.2c-39.24-36-73.84-78-95.43-127q-4.07-9.24-7.46-18.76c-.65-1.81-3.55-1-2.9.8Z"/><path class="tiikls" d="M909.87,543.25a896.23,896.23,0,0,1,46.31-84c8.4-13.45,17.22-26.61,26.2-39.68s18.08-26.36,25.79-40.37c7.62-13.86,13.76-28.47,19.43-43.21,5.75-14.94,11.27-30,16.68-45,10.77-30,20.67-60.4,26.35-91.79a414,414,0,0,0,5.19-46.33c1-15.3,2.1-30.77,6.51-45.55a94,94,0,0,1,4-10.86c.76-1.75-1.82-3.28-2.59-1.51-12.38,28.33-9.65,60.18-13.84,90.19-4.4,31.57-13.53,62.26-24,92.31-5.26,15.14-10.85,30.16-16.44,45.19s-11.38,30.16-18.47,44.64c-14,28.62-33.93,53.82-51.09,80.53a889.93,889.93,0,0,0-47.42,83.37q-2.64,5.26-5.2,10.58c-.83,1.73,1.75,3.25,2.59,1.51Z"/><path class="tiikls" d="M906.77,538.47c-13-28.85-30.67-55.29-50.06-80.23-20.13-25.9-42.09-50.33-63.71-75l-70.77-80.69c-21.63-24.66-43.79-49.28-60.5-77.68s-26.47-60-32.63-92.12q-1.14-6-2.13-12c-.32-1.9-3.21-1.09-2.89.8C629.43,153.88,637.9,186,653,215.18c14.83,28.78,35.84,53.71,57,77.95q35.31,40.41,70.75,80.68c22,25.07,44.37,49.87,65.34,75.81,20.08,24.84,38.74,51.05,53,79.69q2.64,5.3,5.07,10.67c.79,1.76,3.38.23,2.59-1.51Z"/><path class="tiikls" d="M900.76,536.31c-56.46-11.9-114-17.1-171.41-21.74-58.15-4.71-116.17-9.69-173.85-18.64-56.92-8.83-113.38-20.48-169.34-34.11-55.72-13.58-111.19-28.75-165.89-46-27.15-8.56-54.06-18.21-79.46-31.14a349.27,349.27,0,0,1-66.53-44.05c-5.13-4.31-10.11-8.78-15-13.37-1.41-1.32-3.53.79-2.12,2.12a355.63,355.63,0,0,0,62.57,47.14c23.69,14,49,24.89,75,34,26.86,9.42,54.26,17.3,81.61,25.16q41.75,12,83.83,22.76c56.34,14.35,113.19,26.8,170.53,36.5s114.73,15.86,172.54,20.53c58.52,4.74,117.24,9,175.07,19.48q10.86,2,21.66,4.26c1.88.4,2.69-2.5.8-2.89Z"/><path class="tiikls" d="M634.22,425c-10.14-11.66-15.65-26.3-22.32-40a341.65,341.65,0,0,0-24.57-41.84c-18.25-27-38.79-52.4-58-78.72q-29.3-40.14-56.67-81.64T419.72,98.25Q394.36,55.52,371,11.61,368.16,6.2,365.32.75c-.9-1.71-3.49-.19-2.59,1.52q23.14,44.19,48.36,87.26t52.47,84.87q27.22,41.81,56.44,82.28c19.27,26.72,39.85,52.49,58.82,79.43a396.93,396.93,0,0,1,25.76,41.15c7.26,13.59,12.53,28.35,21,41.27a80.33,80.33,0,0,0,6.52,8.63c1.27,1.46,3.39-.67,2.12-2.12Z"/><path class="tiikls" d="M1159.22,642.41a1133.81,1133.81,0,0,1,139.71,6.26c46.53,4.82,92.77,12,138.77,20.48,46.16,8.5,92.07,18.26,137.92,28.25s91.44,20.15,137.3,29.55,92.14,18,138.6,24.79q8.61,1.25,17.23,2.42c1.89.25,2.71-2.64.8-2.9-46.5-6.29-92.71-14.55-138.72-23.74-46.34-9.27-92.49-19.48-138.66-29.57-45.86-10-91.76-20-137.89-28.74-45.58-8.67-91.4-16.21-137.49-21.58-46.52-5.41-93.34-8.58-140.19-8.42-5.79,0-11.59.09-17.38.2-1.93,0-1.93,3,0,3Z"/><path class="tiikls" d="M955.28,457a193.84,193.84,0,0,0,10.62,32.19,126.11,126.11,0,0,0,7.27,14.92,29.18,29.18,0,0,0,10.48,10.57c4.8,2.78,10.18,4.36,15.48,5.88a1.5,1.5,0,0,0,.8-2.89A72.44,72.44,0,0,1,986.72,513a26,26,0,0,1-10.5-9.59,111.12,111.12,0,0,1-7.09-14.19c-2.18-5-4.13-10-5.87-15.17q-3-8.76-5.08-17.79c-.45-1.88-3.34-1.08-2.9.8Z"/><path class="tiikls" d="M996.9,518.29c-3.72,15.43-7.45,31.39-4.52,47.29a51.34,51.34,0,0,0,3.83,12.16c.63,1.39,2.81.65,2.79-.76l0-2.19c0-1.93-3-1.93-3,0l0,2.19,2.8-.75c-8.28-18.17-3.46-38.67,1-57.14.45-1.88-2.44-2.68-2.9-.8Z"/><path class="tiikls" d="M996.68,570.81a123.6,123.6,0,0,0-10,30.68c-.35,1.88,2.54,2.69,2.89.79a120.89,120.89,0,0,1,9.71-29.95c.82-1.74-1.76-3.26-2.59-1.52Z"/><path class="tiikls" d="M899.91,426.44l-.63-.63a1.11,1.11,0,0,0-.49-.31,1,1,0,0,0-.57-.13,1.06,1.06,0,0,0-.58.13,1,1,0,0,0-.48.31l-.24.3a1.54,1.54,0,0,0-.2.76l0,.4a1.49,1.49,0,0,0,.39.66l.63.63a1,1,0,0,0,.48.31,1.36,1.36,0,0,0,1.16,0,1.14,1.14,0,0,0,.48-.31l.23-.3a1.48,1.48,0,0,0,.21-.76l-.05-.4a1.59,1.59,0,0,0-.39-.66Z"/><path class="tiikls" d="M898.32,428.07c3-1-.06-5.17-2-2.86-.82,1-.45,2.16,0,3.22.54,1.29,1.13,2.55,1.79,3.78a45.71,45.71,0,0,0,9.63,12.11c8.53,7.66,19.4,12.12,30.68,13.75a87,87,0,0,0,21.09.37c1.9-.18,1.92-3.18,0-3-19.08,1.87-39.79-1.91-53.14-16.73A42.29,42.29,0,0,1,902,433c-.67-1.07-1.29-2.17-1.85-3.3q-.43-.84-.81-1.71c-.1-.23-.21-.46-.3-.69l-.14-.35c-.12-.59-.38-.41-.79.54l-1.16-.15-.35-1.14,1-1.05-.15.05c-1.83.59-1,3.49.8,2.89Z"/><path class="tiikls" d="M852.66,454c2.8,2.81,7.07,1.22,10.36.35l6.89-1.82a21.47,21.47,0,0,0,5.59-2.06,21,21,0,0,0,4.32-3.94,58.43,58.43,0,0,1,4.6-4c3.26-2.78,5-6.18,6.42-10.14q2.74-7.47,5.48-14.95c.67-1.81-2.23-2.6-2.89-.8l-4.31,11.75c-1.3,3.53-2.35,7.5-5,10.3a42.32,42.32,0,0,1-4,3.47,43.72,43.72,0,0,0-3.84,3.74c-2.73,2.88-6.37,3.53-10.07,4.5-2.22.59-4.43,1.19-6.66,1.76-1.49.38-3.58,1-4.82-.27a1.5,1.5,0,0,0-2.12,2.12Z"/><path class="tiikls" d="M847.32,454.06A55,55,0,0,1,832,498.9,51.13,51.13,0,0,1,821,507.39a1.51,1.51,0,0,0-.54,2.06,12.62,12.62,0,0,1-1.66,16.69,1.54,1.54,0,0,0,0,2.13,20.47,20.47,0,0,1,.72,24.69,1.48,1.48,0,0,0,.23,1.81,108.25,108.25,0,0,1,25.83,33,26.37,26.37,0,0,0,2.3,4.08,9.81,9.81,0,0,0,4.11,3.05,53.24,53.24,0,0,1,8,4.06,44.39,44.39,0,0,1,12.7,12.55,43.44,43.44,0,0,1,7.14,19c.16,1.37,2,2.19,2.79.76a26.57,26.57,0,0,1,30.29-12.35c1.85.56,2.64-2.33.79-2.89-12.64-3.84-27.31,2.15-33.67,13.73l2.8.75a47.49,47.49,0,0,0-17.73-31.58,46.12,46.12,0,0,0-7.73-4.95c-1.5-.74-3.08-1.31-4.59-2a7.39,7.39,0,0,1-3.4-3.41c-1.66-3.07-3.17-6.19-5-9.19s-3.88-6.1-6-9a111.09,111.09,0,0,0-16.45-17.68l.24,1.82c6.08-8.37,5.43-20.48-1.19-28.33v2.13a15.61,15.61,0,0,0,2.13-20.34l-.54,2.05a57.74,57.74,0,0,0,27.6-41.29,53.89,53.89,0,0,0,.18-14.63c-.24-1.89-3.24-1.91-3,0Z"/><path class="tiikls" d="M891.89,341.46c.82,17.62,7.53,34.57,17.79,48.81s24.06,25.91,39.05,35.13a90.76,90.76,0,0,0,12.61,6.91c4.06,1.68,8.66,2.34,12.31-.56,1.51-1.21-.63-3.32-2.12-2.13-2.88,2.3-7.14.86-10.09-.51a109.09,109.09,0,0,1-10.66-6,150.92,150.92,0,0,1-20.19-14.61C918,397.61,907.35,384.18,901,368.65a82.45,82.45,0,0,1-6.14-27.19c-.09-1.93-3.09-1.94-3,0Z"/><path class="tiikls" d="M796.53,393.61c11.32,3,23.19,1,33.6-4.05a68.6,68.6,0,0,0,26.29-23.25c7.27-10.61,12.07-22.72,15.84-34.95,4.08-13.25,7.27-26.81,10.27-40.35q2.7-12.15,5-24.4c1.45-7.71,3.27-15.79,1.13-23.54a1.5,1.5,0,0,0-2.89.79c1.87,6.76.38,13.79-.86,20.51q-1.95,10.58-4.21,21.07c-2.87,13.35-6,26.67-9.74,39.8-6.52,22.86-16.52,46.7-37.9,59.34-10.69,6.33-23.5,9.37-35.71,6.14a1.5,1.5,0,0,0-.8,2.89Z"/><path class="tiikls" d="M781,374.38c1.32,15.66,1.69,31.62-1.47,47.09a101,101,0,0,1-15.76,37,99.73,99.73,0,0,1-15,17.14c-1.43,1.31.7,3.43,2.12,2.12a103.4,103.4,0,0,0,24.09-32.94c6.27-13.6,9.23-28.25,9.82-43.18a220.37,220.37,0,0,0-.83-27.19c-.16-1.91-3.16-1.93-3,0Z"/><path class="tiikls" d="M820.58,421.86c-5.88,20.68-12.13,42.47-27.49,58.32A58.24,58.24,0,0,1,780,490.43a1.5,1.5,0,0,0,1.51,2.59c19.06-10.78,29.52-31.1,36.21-51.13,2.13-6.35,4-12.79,5.79-19.23a1.5,1.5,0,0,0-2.89-.8Z"/><path class="tiikls" d="M682.36,451.35a116.3,116.3,0,0,1,3.37,29.38c-.17,7.67-1.73,16.32-8.45,21-4.49,3.14-9.75,5.45-14.77,7.59l2.2.9-.29-2.21a1.52,1.52,0,0,0-1.85-1,1.55,1.55,0,0,0-1.05,1.85l.3,2.21c.15,1.07,1.44,1.22,2.21.89a95.52,95.52,0,0,0,13.85-7A21,21,0,0,0,686,495.4c3.56-8.32,3-18.09,2.21-26.9a128.49,128.49,0,0,0-3-17.95c-.45-1.88-3.34-1.08-2.89.8Z"/><path class="tiikls" d="M703.11,517.9l.17-2.21-2.8.76c4,7.18,5.62,15.36,6.81,23.42,1.06,7.22,2,15.35-2.17,21.79-1.06,1.62,1.54,3.13,2.59,1.51,4.48-6.89,3.71-15.46,2.6-23.21-1.23-8.63-2.92-17.34-7.24-25a1.51,1.51,0,0,0-2.79.75l-.17,2.21c-.14,1.92,2.86,1.91,3,0Z"/><path class="tiikls" d="M860.19,547.05a36.16,36.16,0,0,1,11.33,24,1.52,1.52,0,0,0,2.56,1.06c1.4-1.26,3.55-1,5.11-.2a12.51,12.51,0,0,1,4.13,4.39,72.1,72.1,0,0,1,6.57,12.93,1.52,1.52,0,0,0,2.2.9,11.07,11.07,0,0,1,11.86-.68,1.52,1.52,0,0,0,2.21-1.69,13.6,13.6,0,0,1,3.58-11.39,13.8,13.8,0,0,1,11.25-4c1.92.18,1.91-2.82,0-3a16.61,16.61,0,0,0-13.64,5.19,16.8,16.8,0,0,0-4.09,14l2.21-1.7a14.07,14.07,0,0,0-14.89.68l2.2.9a63,63,0,0,0-8.23-15.58,11.37,11.37,0,0,0-5.86-4.36A7.17,7.17,0,0,0,872,570l2.56,1.06a39.24,39.24,0,0,0-12.21-26.13c-1.4-1.32-3.53.79-2.12,2.12Z"/><path class="tiikls" d="M896,464.77c-.47,4.11,1.54,7.88,3.3,11.45,1.86,3.77,3.7,7.54,5.59,11.3a35.87,35.87,0,0,0,6.2,9.25,28.86,28.86,0,0,0,8.12,5.81,29.19,29.19,0,0,0,11.16,2.82c1.92.09,1.92-2.91,0-3a25.82,25.82,0,0,1-20-11.27c-2.63-4-4.53-8.44-6.62-12.69-1.07-2.16-2.18-4.31-3.19-6.5a13.31,13.31,0,0,1-1.55-7.17c.22-1.92-2.79-1.9-3,0Z"/><path class="tiikls" d="M928.9,503.37a126.6,126.6,0,0,0,3.76,19.38c1.34,4.82,2.81,10.76,7.63,13.26,1.72.89,3.24-1.7,1.52-2.59-4.29-2.22-5.37-8.16-6.51-12.39a120.46,120.46,0,0,1-3.4-17.66c-.22-1.9-3.23-1.92-3,0Z"/><path class="tiikls" d="M1083.16,480.33a125.16,125.16,0,0,0-16.24,49.24,130.09,130.09,0,0,0,4.43,51.54A121.74,121.74,0,0,0,1083,608.05a1.5,1.5,0,0,0,2.59-1.51,121.74,121.74,0,0,1-15.7-48,128,128,0,0,1,4.5-50.53,119.05,119.05,0,0,1,11.4-26.19,1.5,1.5,0,0,0-2.59-1.51Z"/><path class="tiikls" d="M1123.83,459.37a255.18,255.18,0,0,0,1.11,145.88c3.51,11.37,7.76,23.68,17.49,31.28,1.5,1.18,3.64-.93,2.12-2.12-8.42-6.58-12.48-16.81-15.68-26.68a249.53,249.53,0,0,1-8.62-35.14,253.84,253.84,0,0,1-1.72-72.45,248.61,248.61,0,0,1,8.19-40,1.5,1.5,0,0,0-2.89-.8Z"/><path class="tiikls" d="M1269.91,641.53c-4.1,0-5.91,5.14-7.24,8.25a53.26,53.26,0,0,0-3.64,12.49c-1.16,7.15-1.73,16.38,4.08,21.8,1.41,1.31,3.54-.81,2.12-2.13-4.84-4.51-4.29-12.47-3.38-18.44a53,53,0,0,1,2.82-10.71,47.85,47.85,0,0,1,2.29-5.12c.59-1.14,1.43-3.15,3-3.14a1.5,1.5,0,0,0,0-3Z"/><path class="tiikls" d="M1302.28,647.44a2.1,2.1,0,0,0-3.45-1.53,3.74,3.74,0,0,0-1.06,2.24c-.23,1.1-.44,2.2-.63,3.31-.75,4.4-1.21,8.84-1.53,13.29s-.54,9-.7,13.5a43,43,0,0,0,1.08,12.94,19.87,19.87,0,0,0,6.46,10.36c1.5,1.19,3.63-.92,2.12-2.12-7.09-5.65-6.93-15.38-6.56-23.61.21-4.65.42-9.31.83-14,.21-2.42.46-4.84.82-7.24.16-1.11.34-2.22.54-3.32l.36-1.89c.07-.31.13-.63.2-.94.25-.59-.1-.66-1.06-.21l-.44-1.06,0,.23c.15,1.91,3.15,1.93,3,0Z"/><path class="tiikls" d="M1284.81,370.88c-2,12.1-1.61,24.35-.25,36.49s3.38,24,5.41,35.95c4.13,24.34,8.92,48.6,14.56,72.64a282.65,282.65,0,0,0,9.51,32.92,221.24,221.24,0,0,0,11.82,26.63,226.33,226.33,0,0,0,33.72,47.78,222.1,222.1,0,0,0,44.7,37.32q3.06,1.93,6.2,3.76a1.5,1.5,0,0,0,1.51-2.59,217.8,217.8,0,0,1-45.45-35.52,223.28,223.28,0,0,1-34.61-45.9,228.37,228.37,0,0,1-22.43-56.66c-6-23.42-10.63-47.24-14.87-71-2.12-11.91-4.12-23.86-5.84-35.84s-3-24-2.14-36c.21-3.06.55-6.11,1.06-9.14.31-1.89-2.58-2.7-2.9-.8Z"/><path class="tiikls" d="M1013.56,361.34c.06,20.79-.34,41.65,3.56,62.16a182.55,182.55,0,0,0,19.14,53.32q3.83,7,8.25,13.61c2.28,3.4,6.42,8,10.92,5.43a1.5,1.5,0,0,0-1.52-2.59c-1.62.94-3.33-.34-4.5-1.47a27.48,27.48,0,0,1-3.75-5.07q-3.67-5.67-6.92-11.62a179.11,179.11,0,0,1-11.19-24.88A184.38,184.38,0,0,1,1017,395.82c-.52-11.48-.39-23-.43-34.48a1.5,1.5,0,0,0-3,0Z"/><path class="tiikls" d="M1034.23,307.41A460.93,460.93,0,0,0,1047,386.84c5.7,22.64,12.54,45.78,24.66,65.92A99.07,99.07,0,0,0,1096,480.64c1.53,1.17,3-1.43,1.51-2.59-17.41-13.35-28.27-33.24-35.86-53.42a348,348,0,0,1-10.67-34.4q-5-19-8.32-38.46-3.79-22-5.38-44.36c-.14-1.92-3.14-1.93-3,0Z"/><path class="tiikls" d="M891.16,280.68a137.32,137.32,0,0,0,47.24,79c8.52,7,17.94,13.25,28.15,17.49a56.4,56.4,0,0,0,40.57,1.24c1.81-.64,1-3.54-.8-2.89a53.17,53.17,0,0,1-35.64,0c-10.16-3.59-19.64-9.68-28.07-16.33A135.16,135.16,0,0,1,904.8,312.2a130.22,130.22,0,0,1-10.74-32.32c-.37-1.89-3.26-1.09-2.9.8Z"/><path class="tiikls" d="M890.53,184c10.18,22.44,27.2,41.45,47.72,55,22.46,14.8,49.06,23,75.81,24.75,13.87.92,28.89-.23,40.53-8.58,1.56-1.11.06-3.71-1.51-2.59-10.1,7.24-22.8,8.78-34.92,8.38a157.7,157.7,0,0,1-38.71-6.34c-24.23-7.09-46.6-20.13-63.88-38.62a124.42,124.42,0,0,1-22.45-33.48c-.8-1.76-3.39-.23-2.59,1.51Z"/><path class="tiikls" d="M891.61,109a207.08,207.08,0,0,1-16.37,49.24,203.35,203.35,0,0,1-28.31,43.8A147.88,147.88,0,0,1,827.82,221a194.06,194.06,0,0,1-23.32,15.8c-8.28,5-16.64,9.81-25,14.7-8.06,4.73-16.08,9.63-24.66,13.36-17.42,7.59-36.42,7.75-55.07,6.85-2.33-.11-4.66-.24-7-.37-1.93-.11-1.93,2.9,0,3,18.79,1,38.26,2,56.37-4.08,8.92-3,17.19-7.59,25.3-12.32,8.51-5,17-10,25.5-15a284,284,0,0,0,24.16-15.36,142.29,142.29,0,0,0,20.47-18.38,201.29,201.29,0,0,0,30.21-43.43,209.72,209.72,0,0,0,18.31-49.62q.72-3.15,1.35-6.33c.37-1.88-2.52-2.69-2.89-.79Z"/><path class="tiikls" d="M647,203c20-4.88,40.13-9.77,59.56-16.79a223.88,223.88,0,0,0,53.58-27.61c16.94-12,31.9-26.52,46.91-40.79q23.38-22.23,46.37-44.86T899,27.29l5.65-5.76c1.35-1.39-.77-3.51-2.13-2.13q-22.45,23-45.31,45.57t-46.08,44.78c-15,14.35-29.88,29.13-46.42,41.75a215.29,215.29,0,0,1-52.44,29.35c-19,7.42-38.8,12.55-58.59,17.41l-7.49,1.82c-1.87.46-1.08,3.35.8,2.9Z"/><path class="tiikls" d="M724.22,311.8c.75,23.85-2.77,48.52-14.44,69.64-9.94,18-25.82,33.25-45.56,39.81-13.39,4.45-27.61,5-41.58,5.54-1.92.07-1.93,3.07,0,3,12.72-.49,25.61-1,38-4.32a78.18,78.18,0,0,0,28.9-14.9c17.67-14.3,28.83-35.06,33.94-57a161.58,161.58,0,0,0,3.77-41.78c-.06-1.93-3.06-1.94-3,0Z"/><path class="tiikls" d="M672.45,248.44a116.87,116.87,0,0,1-34.72,40.2,123.87,123.87,0,0,1-48.5,21.52,113.5,113.5,0,0,1-29.94,2c-1.92-.13-1.92,2.87,0,3a119.36,119.36,0,0,0,53.51-9.1A126.5,126.5,0,0,0,657.44,275,116.78,116.78,0,0,0,675,250c.89-1.71-1.7-3.23-2.59-1.52Z"/><path class="tiikls" d="M495.57,220.38c22.12,1,44.33,1.84,66.21-2.23,10.63-2,21.08-4.84,31.46-7.86A193.81,193.81,0,0,0,619,201.15c9.26-4.2,18-9.74,25-17.21,1.32-1.42-.8-3.54-2.12-2.13C629.46,195.1,612,201.58,595,206.65c-10,3-20,5.76-30.19,7.86a186.08,186.08,0,0,1-32.44,3.65c-12.26.34-24.52-.22-36.76-.78-1.93-.09-1.92,2.91,0,3Z"/><path class="tiikls" d="M518.18,258.34a100.74,100.74,0,0,1-30.92,41.1,99,99,0,0,1-51,20.58,100.23,100.23,0,0,1-32.49-1.92c-1.88-.43-2.69,2.46-.8,2.89a103.67,103.67,0,0,0,58.91-3.9,102.36,102.36,0,0,0,44-31.92,103.5,103.5,0,0,0,15.23-26c.72-1.79-2.18-2.57-2.9-.8Z"/><path class="tiikls" d="M577.53,335.24c1.22,17.55-7.32,36.14-22.43,45.58-4.63,2.89-10.14,4.9-15.65,3.84-1.89-.36-2.7,2.53-.8,2.9,10.28,2,20-4.37,26.88-11.46a54.65,54.65,0,0,0,13.59-24.76,52.58,52.58,0,0,0,1.41-16.1c-.14-1.92-3.14-1.93-3,0Z"/><path class="tiikls" d="M600.13,371.38c-2.76,13-7,30.37-22.2,33.69-1.88.41-1.08,3.3.8,2.89,7-1.52,12.61-6.47,16.36-12.38,4.46-7,6.23-15.36,7.93-23.4.4-1.88-2.49-2.69-2.89-.8Z"/><path class="tiikls" d="M755.78,343.52a116.22,116.22,0,0,0,53.13,2,122.14,122.14,0,0,0,48.86-21.07,112.8,112.8,0,0,0,21.73-20.7c1.19-1.5-.92-3.63-2.12-2.12a113.6,113.6,0,0,1-41,31.93,119.32,119.32,0,0,1-50.66,11.13,109.45,109.45,0,0,1-29.12-4.06,1.5,1.5,0,0,0-.8,2.89Z"/><path class="tiikls" d="M1042,289.8a150.57,150.57,0,0,1-38,33.63A154.68,154.68,0,0,1,957,342.81a147.3,147.3,0,0,1-28.45,3.68c-1.92.06-1.93,3.06,0,3a153.09,153.09,0,0,0,50.68-10.39,158.3,158.3,0,0,0,44.53-26.36,149.7,149.7,0,0,0,20.32-20.81c1.2-1.5-.91-3.63-2.12-2.13Z"/><path class="tiikls" d="M1061.12,219.29c12,16.29,27.39,29.6,44,41a414.33,414.33,0,0,0,55.76,31.42,392.26,392.26,0,0,0,61.89,23.51,332,332,0,0,0,67.47,11.63,329.87,329.87,0,0,0,34.59.53q8.64-.33,17.26-1.1,4.3-.39,8.61-.89c1.77-.21,4.76-.25,5-2.65a2.19,2.19,0,0,0-3.64-1.83c-1.4,1.33.73,3.45,2.12,2.12l.19-.18-1.06.44-.3-.58c0-.55-.26-.72-.65-.52a3.47,3.47,0,0,0-.78.1l-1.94.23-4.44.47c-2.69.27-5.37.5-8.06.7q-8.22.62-16.45.82-16.32.39-32.62-.82a327.42,327.42,0,0,1-64.19-11.29,384.54,384.54,0,0,1-59-22.14,435.32,435.32,0,0,1-53.27-29.29c-16.07-10.47-31.23-22.61-43.46-37.48q-2.3-2.77-4.42-5.68c-1.13-1.54-3.74,0-2.59,1.52Z"/><path class="tiikls" d="M1158.74,290.8a335.61,335.61,0,0,0,17.75,56.06c7.07,16.88,16.11,32.72,28.14,46.57a152.29,152.29,0,0,0,21.55,20.39c1.5,1.17,3.64-.94,2.12-2.12a151.31,151.31,0,0,1-35-38.42c-10.09-15.95-17.14-33.72-23-51.61q-5.11-15.62-8.72-31.67c-.42-1.88-3.31-1.08-2.89.8Z"/><path class="tiikls" d="M1291.18,447.82c-12.57,25-15.25,53.36-15.52,80.94-.14,14.62-.19,29.43,1.91,43.92A118.21,118.21,0,0,0,1291.09,612c7.35,13.56,16.56,26,25.75,38.35,1.14,1.53,3.74,0,2.59-1.52-16.06-21.58-32.65-44.12-38-71.08-2.82-14.33-2.82-29.11-2.82-43.65,0-13.75.43-27.56,2.32-41.19,2.08-15.06,6-29.95,12.81-43.57.87-1.72-1.72-3.24-2.59-1.51Z"/><path class="tiikls" d="M1171,441.22a177,177,0,0,0,29.57,51.62,181.15,181.15,0,0,0,44.8,39.18,174.16,174.16,0,0,0,30,14.72c1.81.68,2.59-2.22.79-2.9a172.55,172.55,0,0,1-50.26-29.6A178.82,178.82,0,0,1,1188.08,470a170.12,170.12,0,0,1-14.18-29.6c-.65-1.8-3.55-1-2.89.8Z"/><path class="tiikls" d="M987.58,666.34c1.18,3.06-.23,6.12-1.72,8.81s-3,5.17-4.58,7.71A110.72,110.72,0,0,1,971,697.38a52.88,52.88,0,0,1-13.37,11.44c-5.91,3.43-12.51,5.61-19,7.7a235.68,235.68,0,0,1-23.08,6.17c-1.89.4-1.09,3.29.8,2.89q11-2.36,21.7-5.73c6.89-2.17,13.94-4.46,20.28-8,11-6.09,18.62-16.34,25.11-26.8,1.86-3,3.77-6,5.42-9.17s3-6.84,1.6-10.36c-.69-1.78-3.59-1-2.89.8Z"/><path class="tiikls" d="M802.67,749.37a186.24,186.24,0,0,0,46.91,35.94,189,189,0,0,0,55.57,19.6c5.43,1,10.91,1.74,16.4,2.24q2.12.2,4.23.33a4,4,0,0,0,3.07-.79,3.16,3.16,0,0,0,1.34-2.28,1.88,1.88,0,0,0-2.05-1.87c-1.93,0-1.94,3,0,3l-.92-1.37h0c-.09,0-.15.23-.25.25a2.29,2.29,0,0,1-.76.1c-1.21-.06-2.42-.17-3.62-.27q-3.42-.3-6.83-.72c-4.54-.56-9.06-1.32-13.55-2.24a186.42,186.42,0,0,1-74.38-33.45,180.5,180.5,0,0,1-23-20.59c-1.33-1.4-3.45.72-2.12,2.13Z"/><path class="tiikls" d="M856.44,685.14a36.74,36.74,0,0,0,18.18,19.32c10,4.71,21.17,4.07,31.84,2.74,2.48-.31,6-.17,7.92-2.06a9.11,9.11,0,0,0,1.88-3.75,41.82,41.82,0,0,0,1.26-4.8c.39-1.88-2.5-2.69-2.89-.8-.25,1.24-.55,2.47-.91,3.68a11.12,11.12,0,0,1-1.22,3.27c-.63.85-1.85.91-2.82,1-1.3.18-2.61.34-3.91.5a92.42,92.42,0,0,1-15,.86c-8.9-.37-17.31-3.36-23.77-9.62a33.43,33.43,0,0,1-7.62-11.18c-.72-1.77-3.62-1-2.89.79Z"/><path class="tiikls" d="M912.63,655.18c7,3.59,14.9,3.38,22.51,2.84,4.29-.3,8.56-.65,12.84-1a41.94,41.94,0,0,0,11.5-2.12,29.81,29.81,0,0,0,10.36-6.62c1.38-1.35-.74-3.47-2.12-2.12a26.46,26.46,0,0,1-11.16,6.55c-4.7,1.36-9.78,1.42-14.63,1.81-9,.73-19.39,2.4-27.79-1.92-1.71-.88-3.23,1.7-1.51,2.59Z"/><path class="tiikls" d="M1104.07,615.88a60.72,60.72,0,0,1-10.81,33.64c-1.11,1.59,1.49,3.09,2.59,1.51a63.54,63.54,0,0,0,11.22-35.15c0-1.93-3-1.93-3,0Z"/><path class="tiikls" d="M1123.06,658c-5.23,2.93-8.52,8-11,13.36-2.6,5.65-4.67,11.51-7.43,17.09a137,137,0,0,1-22.44,32.47A135,135,0,0,1,1065.64,736a1.58,1.58,0,0,0-.54,2.06,1.52,1.52,0,0,0,2.06.53,140.36,140.36,0,0,0,27.58-28.14,137.92,137.92,0,0,0,10.65-16.9,187.27,187.27,0,0,0,7.83-17.34c2.47-6,5.46-12.36,11.35-15.66,1.69-.94.17-3.54-1.51-2.59Z"/><path class="tiikls" d="M925.7,773.29c16.74,5.54,34.89,2.83,50.6-4.58,16.6-7.83,30.25-20.77,40.16-36.12a111.62,111.62,0,0,0,13.41-29.49,1.5,1.5,0,0,0-2.89-.8,107.38,107.38,0,0,1-28.09,47.12c-12.2,11.79-27.9,20.49-44.76,23.12a59.13,59.13,0,0,1-27.64-2.14c-1.83-.61-2.62,2.28-.79,2.89Z"/><path class="tiikls" d="M799,556.35c.19-1.72-2.08-2.61-3.31-1.6-1.58,1.31-.64,4.14-.43,5.84.57,4.59,1.17,9.17,2,13.72a87.53,87.53,0,0,0,7.7,24.54,54.23,54.23,0,0,0,7.77,11.43c1.29,1.45,3.41-.68,2.13-2.12-5.8-6.51-9.57-14.55-12-22.86a114.48,114.48,0,0,1-3.11-14.15c-.39-2.4-.73-4.81-1-7.22l-.48-3.82c-.08-.63-.15-1.27-.23-1.91l-.12-1c0-.84-.58-1.14-1.85-.9-.22,1.91,2.78,1.9,3,0Z"/><path class="tiikls" d="M788.8,620.64c6.19,25.83,13.06,53.28,32.63,72.55a65.45,65.45,0,0,0,16.39,11.87c1.72.86,3.24-1.73,1.52-2.6-23.06-11.56-34.87-36.12-41.77-59.75-2.2-7.56-4-15.22-5.87-22.87-.45-1.87-3.35-1.08-2.9.8Z"/><path class="tiikls" d="M729.18,562.12c2.54,22.85,5.14,46.23,1.42,69.1A112.46,112.46,0,0,1,725.89,650c-.63,1.83,2.27,2.61,2.9.8,7.65-22.11,7.42-45.89,5.42-68.92-.58-6.59-1.3-13.18-2-19.76-.21-1.9-3.21-1.92-3,0Z"/><path class="tiikls" d="M462,351.64c1.95,19-3.8,37.85-13.16,54.22-9.56,16.7-22.65,31-36,44.67-6.72,6.88-14,14.34-23.82,16.23-1.89.37-1.09,3.26.8,2.9,8.88-1.72,16-7.81,22.2-14,6.93-6.91,13.7-14,20.08-21.46,12.77-14.84,23.92-31.42,29.58-50.34a83.18,83.18,0,0,0,3.36-32.2c-.19-1.91-3.2-1.93-3,0Z"/><path class="tiikls" d="M385.48,460.52c4.11,12.8,4.21,26.47,2.18,39.67a178.31,178.31,0,0,1-9.6,35.59,203,203,0,0,1-63.37,87.16c-1.51,1.21.63,3.32,2.12,2.13a205.36,205.36,0,0,0,46.72-52.91c12.59-20.46,22-43.39,26.33-67.06,2.77-15,3.23-30.7-1.49-45.37-.59-1.83-3.49-1.05-2.89.79Z"/><path class="tiikls" d="M308.84,624.94l-2.53-2.53a1.56,1.56,0,0,0-1.06-.44,1.5,1.5,0,0,0-1.5,1.5,1.56,1.56,0,0,0,.44,1.06l2.53,2.53a1.54,1.54,0,0,0,1.06.44,1.56,1.56,0,0,0,1.06-.44,1.52,1.52,0,0,0,.44-1.06,1.59,1.59,0,0,0-.44-1.06Z"/><path class="tiikls" d="M485.54,486.53c-4,7.91-6.27,16.49-9,24.87-2.47,7.59-5.24,15.08-8.4,22.4a199,199,0,0,1-23.62,41.26,153.63,153.63,0,0,1-18,19.93c-1.42,1.32.71,3.44,2.12,2.12a167.27,167.27,0,0,0,29.68-37.36,233.88,233.88,0,0,0,19.76-43.61c3.2-9.39,5.51-19.19,10-28.09.87-1.72-1.72-3.24-2.59-1.52Z"/><path class="tiikls" d="M603.2,417.55a175.25,175.25,0,0,1-32.08,63,177.07,177.07,0,0,1-13.34,14.85,1.5,1.5,0,0,0,2.12,2.12,179.07,179.07,0,0,0,39.69-59.9,176.64,176.64,0,0,0,6.51-19.31,1.51,1.51,0,0,0-2.9-.8Z"/><path class="tiikls" d="M556.41,398.66c-2,13.35-6.34,26.23-11.75,38.56-5.32,12.15-11.45,24-17.8,35.63a86,86,0,0,1-5.59,9.08,42.52,42.52,0,0,1-3.23,4c-.66.73-2.88,3.6-4,3-1.71-.91-3.23,1.68-1.52,2.59,3.18,1.68,6-1.65,7.93-3.78a56.71,56.71,0,0,0,5.78-7.81c3.65-5.82,6.69-12.05,9.85-18.15,6.56-12.66,12.85-25.52,17.45-39a134.16,134.16,0,0,0,5.77-23.27c.29-1.89-2.6-2.7-2.89-.8Z"/><path class="tiikls" d="M640.76,435.71c.08,10.17-4.38,19.7-8.72,28.67a251.09,251.09,0,0,1-14.77,26.36c-2.93,4.56-5.81,9.67-9.95,13.24-1.47,1.27.66,3.38,2.12,2.13,3.77-3.26,6.45-7.79,9.16-11.92q4.3-6.56,8.19-13.39a193.6,193.6,0,0,0,13.57-27.94,48.5,48.5,0,0,0,3.4-17.15,1.5,1.5,0,0,0-3,0Z"/><path class="tiikls" d="M760.76,483.76a43.72,43.72,0,0,1-24,33.83c-1.74.85-.22,3.44,1.51,2.59a46.75,46.75,0,0,0,25.49-36.42c.22-1.92-2.78-1.9-3,0Z"/><path class="tiikls" d="M590.05,504.62a102.28,102.28,0,0,1-.31,16.42,38.74,38.74,0,0,1-5.34,15.2c-2.62,4.36-5.64,8.51-8.62,12.63a103.08,103.08,0,0,1-9.19,11.24,48,48,0,0,1-12.93,9.76c-1.73.86-.21,3.45,1.51,2.59,9-4.52,15.83-12.14,21.77-20.12,3.16-4.25,6.27-8.6,9.11-13.08a42.47,42.47,0,0,0,6.26-15.36c1.14-6.36,1-12.84.74-19.28-.06-1.93-3.06-1.93-3,0Z"/><path class="tiikls" d="M316.88,275.79c-14.48,19-30.57,36.91-49.32,51.76a177.81,177.81,0,0,1-29.66,19.17c-12,6.11-24.79,10.47-37.69,14.27-15.09,4.46-30.3,8.52-45.46,12.74a1.5,1.5,0,0,0,.8,2.89c13.79-3.84,27.6-7.59,41.36-11.54,13.09-3.76,26.1-7.94,38.43-13.77,21.83-10.34,41-25.64,57.68-42.93a351,351,0,0,0,26.45-31.07c1.17-1.54-1.43-3-2.59-1.52Z"/><path class="tiikls" d="M406.68,81.07c.36,15.43-4.57,30.32-11.37,44a268.1,268.1,0,0,1-24.05,38.65A315.53,315.53,0,0,1,342,198.21q-7.86,8-16.29,15.51A122,122,0,0,1,308,227.36a68,68,0,0,1-20.63,7.77c-7,1.56-14.13,2.79-20.77,5.62a42,42,0,0,0-4.83,2.43,1.5,1.5,0,0,0,1.52,2.59c6.36-3.74,13.6-5.33,20.75-6.86s14.45-3.21,21.14-6.57,12.83-8,18.57-12.93,11.43-10.14,16.85-15.51a321.49,321.49,0,0,0,30.14-34.46,288.38,288.38,0,0,0,25-38.68c7.23-13.62,13-28.41,13.85-43.95.1-1.91.13-3.83.08-5.74s-3-1.94-3,0Z"/><path class="tiikls" d="M356.84,186.15c16.52,7.74,33.45,14.81,51.14,19.42,17.16,4.46,35.09,6.55,52.78,4.61A105.75,105.75,0,0,0,489.53,203c1.76-.72,1-3.62-.8-2.89-16.08,6.61-33.62,8.64-50.9,7.45-17.71-1.22-35-5.91-51.6-12.12-9.47-3.54-18.73-7.61-27.88-11.9-1.74-.81-3.26,1.77-1.51,2.59Z"/><path class="tiikls" d="M422.43,210.67V209.4a1,1,0,0,0-.13-.57,1.34,1.34,0,0,0-.79-.8,1.27,1.27,0,0,0-.58-.13l-.39.06a1.54,1.54,0,0,0-.67.38l-.23.31a1.42,1.42,0,0,0-.21.75v1.27a1.29,1.29,0,0,0,.13.58,1.24,1.24,0,0,0,.31.48,1.21,1.21,0,0,0,.49.31,1.11,1.11,0,0,0,.57.13l.4-.06a1.45,1.45,0,0,0,.66-.38l.24-.31a1.41,1.41,0,0,0,.2-.75Z"/><path class="tiikls" d="M419.57,206.26c-1.23,14.39-6,28.25-13,40.83a154.75,154.75,0,0,1-26.71,34.6c-2.87,2.85-5.81,5.68-8.91,8.28s-7.25,5.48-11.6,4.56c-1.88-.4-2.69,2.49-.8,2.89,8,1.7,14.65-5.23,19.95-10.23a179.35,179.35,0,0,0,15.76-16.85c9.65-11.77,17.75-24.91,22.88-39.29a99.24,99.24,0,0,0,5.41-24.79c.16-1.92-2.84-1.91-3,0Z"/><path class="tiikls" d="M385.59,313.68a240.77,240.77,0,0,1-47.17,57,245.39,245.39,0,0,1-61.74,40.09q-9.51,4.31-19.39,7.74-4.94,1.72-9.93,3.22c-3.59,1.08-7.51,2.55-11.21,1.22-1.82-.65-2.61,2.24-.8,2.89,3.48,1.25,7.15.43,10.58-.56,3-.85,5.93-1.77,8.86-2.75q9-3,17.73-6.69a244.44,244.44,0,0,0,33.64-17.4,248.54,248.54,0,0,0,57.18-48.76,241.21,241.21,0,0,0,24.84-34.48,1.5,1.5,0,0,0-2.59-1.51Z"/><path class="tiikls" d="M1038.7,625.1a88.7,88.7,0,0,1-28.48,44.65,85.43,85.43,0,0,1-12.58,8.79,1.5,1.5,0,0,0,1.51,2.59,91.59,91.59,0,0,0,37.06-40.45,90.42,90.42,0,0,0,5.39-14.78,1.51,1.51,0,0,0-2.9-.8Z"/><path class="tiikls" d="M1023.4,585.83a95,95,0,0,1-4.15,15.68,33.75,33.75,0,0,1-3.54,6.86,15.82,15.82,0,0,1-2.3,2.67,9.53,9.53,0,0,1-1.38,1.06,7.16,7.16,0,0,1-.66.39,4.44,4.44,0,0,1-.49.24c-.64.21-.33.64.93,1.28l-.69.89.18-.1c1.65-1,.14-3.6-1.52-2.59a1.92,1.92,0,0,0,0,3.3c1.33.79,3-.29,4.11-1a20.29,20.29,0,0,0,6.11-7.39c3.38-6.36,4.88-13.46,6.31-20.46.39-1.89-2.5-2.69-2.89-.8Z"/><path class="tiikls" d="M1003.82,605.63c-3.05,8.56-6.19,17.4-12.15,24.44a120.77,120.77,0,0,1-10.09,10L970.2,650.73c-1.42,1.32.71,3.43,2.12,2.12,5.88-5.5,11.91-10.89,17.64-16.55a57.3,57.3,0,0,0,12.31-18.25c1.64-3.81,3.05-7.72,4.44-11.62.65-1.83-2.24-2.61-2.89-.8Z"/><path class="tiikls" d="M1201.12,692.84a186.49,186.49,0,0,1-16.51,45.55c-6.69,12.9-14.75,25.62-25.85,35.19a52.87,52.87,0,0,1-20.28,11.18,1.5,1.5,0,0,0,.8,2.89c14-3.87,25.11-13.79,33.79-25.08,9.71-12.65,17.15-27.22,22.86-42.06a188,188,0,0,0,8.08-26.88c.42-1.88-2.47-2.68-2.89-.79Z"/><path class="tiikls" d="M1231.64,673.44a49,49,0,0,1-9.89,28.3c-1.16,1.55,1.44,3,2.59,1.52a51.74,51.74,0,0,0,10.3-29.82c0-1.94-3-1.93-3,0Z"/><path class="tiikls" d="M1408.73,663a268.14,268.14,0,0,0,12.72,93.46q4.13,12.76,9.52,25c.78,1.76,3.36.24,2.59-1.52a264.9,264.9,0,0,1-21.64-90.58q-.76-13.2-.19-26.41c.08-1.93-2.92-1.93-3,0Z"/><path class="tiikls" d="M1374.41,738.89c-6.66,15.54-15.12,31.65-30.51,40.1-1.69.93-.18,3.52,1.52,2.59,15.84-8.7,24.71-25.15,31.58-41.17.75-1.76-1.83-3.29-2.59-1.52Z"/><path class="tiikls" d="M1312.8,759.07c-6,15.8-13.63,31.32-24.4,44.47-10.39,12.69-23.87,23-39.62,28a65,65,0,0,1-27.81,2.47c-1.91-.23-1.9,2.77,0,3a66.65,66.65,0,0,0,25.69-1.72,78.7,78.7,0,0,0,22.85-10.48c14.36-9.5,25.39-23.12,33.77-38a204.11,204.11,0,0,0,12.42-27c.69-1.81-2.21-2.59-2.9-.8Z"/><path class="tiikls" d="M933.55,841.76c22.15,9.21,44.33,18.43,67.05,26.17a470.76,470.76,0,0,0,68,17.62,578.6,578.6,0,0,0,69,8.07c23.43,1.39,46.93,1.54,70.39.83s46.74-2.26,70-4.32l8.59-.79c1.91-.17,1.92-3.18,0-3-23.18,2.17-46.4,3.88-69.66,4.8s-46.75,1-70.11,0a592.24,592.24,0,0,1-69.3-7.05,471.3,471.3,0,0,1-67.72-16.23c-22.85-7.35-45.11-16.37-67.27-25.56l-8.19-3.4c-1.79-.74-2.56,2.16-.8,2.89Z"/><path class="tiikls" d="M562.19,714.61c9.73,13.11,25.53,19.3,40.14,25.28a419.21,419.21,0,0,0,52.92,18.05,289.73,289.73,0,0,0,52.81,8.7,259.19,259.19,0,0,0,53.41-1.73,233.94,233.94,0,0,0,26-5.09q6.48-1.65,12.85-3.7,3.12-1,6.23-2.11c1.56-.56,4.1-1.49,3.27-3.68a2,2,0,0,0-3.65-.38c-.92,1.7,1.67,3.22,2.59,1.52a8.9,8.9,0,0,0-1.8-.81,5,5,0,0,0-.78.3l-1.29.46-3.22,1.1q-3,1-6,1.92-6,1.78-12,3.25a230.89,230.89,0,0,1-24.76,4.57,258.05,258.05,0,0,1-50.09,1.43,283.64,283.64,0,0,1-49.92-7.93,400.05,400.05,0,0,1-50.17-16.53c-7.51-3-15.07-6-22.31-9.6-6.52-3.23-12.84-7.09-18-12.32a43.8,43.8,0,0,1-3.61-4.21c-1.13-1.54-3.74,0-2.59,1.51Z"/><path class="tiikls" d="M616.85,692.76a84.61,84.61,0,0,0,10.42,28.29c5.45,9.24,12.74,16.93,20.63,24.11q7.23,6.57,14.79,12.77c1.48,1.22,3.61-.89,2.12-2.12-8.51-7-17.07-14.2-24.55-22.3a81.78,81.78,0,0,1-16-25.35,82.77,82.77,0,0,1-4.54-16.2c-.34-1.9-3.23-1.09-2.9.8Z"/><path class="tiikls" d="M672.86,672.79c7.08,7.32,16.15,12.18,25.59,15.75a206.86,206.86,0,0,0,31.62,8.76c22.69,4.67,45.89,6.51,69,6.69,13.13.1,26.25-.33,39.36-1.07,1.92-.11,1.93-3.11,0-3-22.88,1.29-45.85,1.64-68.71-.14-22.29-1.73-44.77-5.39-66-12.53-10.56-3.55-20.91-8.47-28.75-16.58-1.34-1.39-3.46.73-2.12,2.12Z"/><path class="tiikls" d="M717.92,836.9c.66,17.53,12.49,31.66,25.55,42.16,6.75,5.41,13.9,10.35,21.07,15.17s14.58,9.51,22.09,13.92a353.4,353.4,0,0,0,46.41,23,270.72,270.72,0,0,0,49.26,14.89,235.18,235.18,0,0,0,25.59,3.63c8.16.7,16.8,1.06,24.61-1.85a29.62,29.62,0,0,0,5.5-2.72c1.63-1,.12-3.63-1.51-2.59-7,4.44-15.47,4.92-23.53,4.52a204.25,204.25,0,0,1-24.78-2.93,264.5,264.5,0,0,1-48.3-13.47A337.08,337.08,0,0,1,794.18,909a423.43,423.43,0,0,1-42.58-27.51c-13.24-9.71-26.52-21.84-30-38.64a36.29,36.29,0,0,1-.7-6c-.08-1.92-3.08-1.93-3,0Z"/><path class="tiikls" d="M1109.69,764.76a178.4,178.4,0,0,1-45.11,52.12A217.65,217.65,0,0,1,1036.25,836a141.9,141.9,0,0,1-31.53,13.37c-12.23,3.38-25.1,4.61-37.65,2.44-1.89-.32-2.7,2.57-.8,2.9,23.16,4,46.38-2.88,66.81-13.58a212.91,212.91,0,0,0,29.67-19,197.52,197.52,0,0,0,25.9-23.31,173.71,173.71,0,0,0,23.63-32.48,1.5,1.5,0,0,0-2.59-1.52Z"/><path class="tiikls" d="M454.58,762.77c3.68,16.55,13.45,31,25.65,42.53,13,12.31,28.69,21.56,45,28.76a259.06,259.06,0,0,0,55,16.77A474.43,474.43,0,0,0,638.14,858c10.11.7,20.25,1.36,30.38,1.54A111.26,111.26,0,0,0,700,856c2.52-.69,5-1.49,7.47-2.38,1.8-.65,1-3.55-.8-2.89a99,99,0,0,1-30.51,5.78c-10.17.32-20.39-.4-30.54-1a517.47,517.47,0,0,1-57.18-6.19,275.3,275.3,0,0,1-54.61-14.87c-16.59-6.58-32.73-15.18-46.41-26.73-12.58-10.6-23.35-24-28.37-39.83-.61-1.94-1.13-3.91-1.57-5.89s-3.31-1.09-2.89.8Z"/><path class="tiikls" d="M524.1,734.45c6.45,13.44,17.62,24.08,30.26,31.72,14.64,8.84,31.27,13.75,47.81,17.66a519.65,519.65,0,0,0,54,9.76,463.21,463.21,0,0,0,55.31,4,163.09,163.09,0,0,0,27.57-2c9-1.48,18-3.63,26.93-5.67l6.79-1.55c1.88-.43,1.08-3.32-.8-2.89-17.7,4-35.32,8.58-53.56,9.06-9.19.25-18.39-.16-27.56-.71q-13.5-.81-26.94-2.32a513.17,513.17,0,0,1-53.41-8.87c-16.69-3.68-33.55-7.92-48.8-15.84-13-6.73-24.85-16.32-32.39-29q-1.39-2.37-2.58-4.85c-.84-1.74-3.43-.22-2.59,1.51Z"/><path class="tiikls" d="M599.8,568.39a419.55,419.55,0,0,1-5,60.27c-3.24,19.68-8.35,39.18-16.37,57.48a179.32,179.32,0,0,1-16.16,29.26c-1.09,1.6,1.5,3.1,2.59,1.52,11.35-16.59,19.6-35.13,25.32-54.37,5.79-19.47,9.07-39.63,10.87-59.85,1-11.41,1.56-22.86,1.78-34.31,0-1.93-3-1.93-3,0Z"/><path class="tiikls" d="M685.74,510.62c1.68,18.81,2.3,39.62-9.84,55.4a1.5,1.5,0,1,0,2.59,1.52c9.33-12.13,11.55-27.91,11.16-42.81-.13-4.71-.49-9.42-.91-14.11-.17-1.91-3.17-1.93-3,0Z"/><path class="tiikls" d="M565.31,711.32c-36.69,6-73.64,10.36-110.66,13.73-36.87,3.37-73.82,5.8-110.77,8.08s-73.9,4.41-110.82,7.14-73.57,6.07-110.18,10.79c-36.32,4.69-72.48,10.72-108.2,18.85q-6.81,1.55-13.61,3.2c-1.87.45-1.08,3.35.8,2.89a1099.66,1099.66,0,0,1,108.64-20.29c36.78-5.08,73.74-8.66,110.74-11.54s73.85-5,110.79-7.31,73.91-4.59,110.8-7.76C479.44,726,516,722,552.29,716.41c4.61-.7,9.22-1.44,13.82-2.19,1.9-.31,1.09-3.21-.8-2.9Z"/><path class="tiikls" d="M366.21,610.77c4.83,17,5.8,34.75,4.69,52.3-.56,8.7-1.6,17.37-3,26a157.8,157.8,0,0,1-5.24,23,76,76,0,0,1-11.95,23.51,1.5,1.5,0,1,0,2.59,1.52c9.86-12.77,14.29-28.69,17-44.34,3-17.49,4.77-35.4,3.69-53.15A139.07,139.07,0,0,0,369.1,610a1.5,1.5,0,0,0-2.89.8Z"/><path class="tiikls" d="M397.89,598a276.14,276.14,0,0,1,1.73,54.15A198.89,198.89,0,0,1,389,704.71,158.85,158.85,0,0,1,376.24,732a1.5,1.5,0,0,0,2.59,1.51,171.73,171.73,0,0,0,19.39-50.4,232,232,0,0,0,5-54.38,293.25,293.25,0,0,0-2.3-30.77c-.24-1.89-3.24-1.91-3,0Z"/><path class="tiikls" d="M248,741.68a102.9,102.9,0,0,0,23.17,44,102,102,0,0,0,71.54,33.67c1.93.08,1.93-2.92,0-3a99.68,99.68,0,0,1-48.12-14.87,99.06,99.06,0,0,1-43.69-60.61c-.46-1.88-3.35-1.09-2.9.79Z"/><path class="tiikls" d="M330.9,735.84A187.53,187.53,0,0,0,382,781.2a185.51,185.51,0,0,0,17.16,9.15c1.74.81,3.27-1.77,1.52-2.59a184.3,184.3,0,0,1-67.64-54c-1.19-1.52-3.3.61-2.12,2.12Z"/><path class="tiikls" d="M461.57,725.41a47.73,47.73,0,0,0,9.53,17.42,45.73,45.73,0,0,0,7.29,6.82c2.75,2.08,5.83,3.73,9.34,3.86,1.93.07,1.93-2.93,0-3-3.15-.12-5.92-1.93-8.32-3.83a45,45,0,0,1-6.45-6.27,44.22,44.22,0,0,1-8.5-15.8c-.55-1.84-3.45-1.06-2.89.8Z"/><path class="tiikls" d="M482.39,587.32a388.06,388.06,0,0,1-4.2,54.16,432.41,432.41,0,0,1-11.6,52.64c-2.68,9.55-5.13,19.41-4.28,29.41.16,1.91,3.16,1.93,3,0-.76-8.87,1.15-17.58,3.47-26.1,2.38-8.72,4.85-17.41,6.86-26.23A393,393,0,0,0,484,617.92q1.32-15.25,1.43-30.6a1.5,1.5,0,0,0-3,0Z"/><path class="tiikls" d="M698.43,562.43a345.67,345.67,0,0,1,5.07,75.8q-.46,10.71-1.59,21.38c-.21,1.92,2.8,1.91,3,0a347.85,347.85,0,0,0-.43-76.6q-1.26-10.74-3.16-21.37c-.34-1.9-3.23-1.1-2.89.79Z"/><path class="tiikls" d="M314.59,831A207,207,0,0,0,330,871.06a222.42,222.42,0,0,0,23.11,36.23,234.24,234.24,0,0,0,29.72,31.49,259.06,259.06,0,0,0,35.07,25.93,280.48,280.48,0,0,0,38.87,19.95c1.69.71,3.4,1.41,5.11,2.09s2.67-2,1.15-2.74l-6-3c-1.72-.86-3.24,1.73-1.51,2.59l6,3,1.15-2.75a279.15,279.15,0,0,1-38.71-19A255.7,255.7,0,0,1,388.8,940a235.1,235.1,0,0,1-30-30.4,220.9,220.9,0,0,1-23.67-35.22,204.76,204.76,0,0,1-16.19-39.14q-.75-2.51-1.42-5a1.5,1.5,0,0,0-2.89.8Z"/><path class="tiikls" d="M267.67,432.84a310.32,310.32,0,0,1-4.69,47.8,377.68,377.68,0,0,1-11.43,46.67,468.74,468.74,0,0,1-16.8,45.35c-6.1,14.27-12.63,28.5-20.12,42.1-6.2,11.26-14,22.8-25.88,28.59a36.13,36.13,0,0,1-4.38,1.77c-1.83.6-1.05,3.5.79,2.89,12.91-4.26,22-14.89,28.84-26.16,3.76-6.16,7-12.64,10.17-19.12q5.45-11,10.44-22.28a491.49,491.49,0,0,0,17.75-45.84,387.72,387.72,0,0,0,12.4-47.17A321,321,0,0,0,270.5,439c.08-2,.14-4.09.17-6.13s-3-1.93-3,0Z"/><path class="tiikls" d="M1294.16,367.38c30.6,3,61.52-1.72,92-3.89s61.21-3.58,91.85-4.4c61.65-1.65,123.34-.91,185,.69,34.75.91,69.49,2.09,104.23,3.29l-.76-2.8-13.1,7.08c-1.7.91-.18,3.5,1.52,2.59l13.1-7.08a1.51,1.51,0,0,0-.76-2.79c-61.65-2.13-123.32-4.21-185-4.77s-123.3.42-184.82,4.42c-17.13,1.12-34.22,2.62-51.33,4-17.28,1.42-34.65,2.36-51.94.65-1.92-.19-1.91,2.81,0,3Z"/><path class="tiikls" d="M1462.52,356.2a371,371,0,0,0-2.68,77.89,436.34,436.34,0,0,0,12.56,77.18,511.27,511.27,0,0,0,25.27,74.31c10.42,24.51,22.27,48.49,39.31,69.13,8.22,10,17.34,19.45,28.14,26.64,10.63,7.08,22.62,11.8,34.64,16,3,1,5.94,2,8.91,3,1.83.62,2.62-2.28.8-2.89-11.94-4-24-8-35.07-14.06-11.35-6.14-20.9-14.58-29.51-24.12a196,196,0,0,1-23.35-31.8,346.17,346.17,0,0,1-17.81-35.44,515.59,515.59,0,0,1-26.13-72.85,440.25,440.25,0,0,1-14-75.85,374.24,374.24,0,0,1,.58-76.6c.36-3.26.78-6.51,1.24-9.76.27-1.88-2.62-2.7-2.89-.79Z"/><path class="tiikls" d="M1430.54,244.34c2,.8,3,3,3.85,4.83,1.1,2.24,2.16,4.49,3.24,6.75q3.18,6.71,6.35,13.43c4.28,9,8.64,18,13.42,26.73,9.61,17.59,21.06,34.06,35.89,47.66a261.91,261.91,0,0,0,27.62,21.6c1.59,1.1,3.09-1.5,1.52-2.59-17.11-11.91-33.25-25.06-45.8-41.86-11.91-15.93-20.88-33.8-29.41-51.69-2.44-5.12-4.84-10.26-7.28-15.38-1.17-2.45-2.28-4.95-3.55-7.35a10.18,10.18,0,0,0-5.06-5c-1.78-.73-2.56,2.17-.79,2.89Z"/><path class="tiikls" d="M1072.83,156.24c13.85,19.18,31.08,35.58,50.22,49.41,19.36,14,40.52,25.36,62.36,35a477,477,0,0,0,74.14,25.88c26.35,6.71,53.63,10.52,80.85,9.06,25.52-1.37,51-7.26,73.8-18.95,2.87-1.47,5.69-3,8.46-4.68l-1.81-2.36-4.12,4.12a1.5,1.5,0,0,0,2.12,2.12l4.12-4.12a1.5,1.5,0,0,0-1.82-2.35c-22,13-46.94,20.21-72.27,22.59-26.55,2.5-53.31-.23-79.26-6.09-25.66-5.8-50.76-14.4-75-24.52-21.66-9-42.73-19.73-62.24-32.83-19.33-13-37.08-28.46-51.61-46.72q-2.74-3.45-5.32-7c-1.12-1.55-3.72-.06-2.59,1.51Z"/></g></g></svg>